<svg width="12" height="13" viewBox="0 0 12 13" fill="none" xmlns="http://www.w3.org/2000/svg">
<path d="M11.6305 9.78319C11.5884 9.56919 11.4969 9.36798 11.3632 9.1956C11.2296 9.02321 11.0576 8.88441 10.8608 8.79025L8.69788 7.79731L7.805 7.11995C7.78351 7.01105 7.73298 6.90999 7.65876 6.82745V6.82745V5.72675C7.87684 5.40735 8.06249 5.06699 8.21296 4.71071C8.38419 4.59936 8.52698 4.44948 8.6299 4.27304C8.73282 4.09661 8.79301 3.89854 8.80564 3.69468C8.80564 3.16357 8.644 3.04041 8.48236 3.03271C8.46697 2.67094 8.6517 0 5.93457 0C3.01732 0 3.43297 3.0789 3.43297 3.0789C3.27903 3.0789 3.10969 3.20975 3.14047 3.69468C3.15566 3.89703 3.21611 4.09339 3.31736 4.26925C3.41862 4.44511 3.55809 4.59598 3.72547 4.71071C3.88253 5.06376 4.06787 5.40355 4.27967 5.72675V6.84285C4.20725 6.92064 4.15678 7.01627 4.13342 7.11995L3.24054 7.78961V7.8281L1.15459 8.79025C0.957486 8.88391 0.785143 9.02256 0.651445 9.19503C0.517748 9.3675 0.426434 9.56897 0.384862 9.78319L0 11.6613C0 11.6613 0.354073 12.5542 6.00385 12.5542C11.6536 12.5542 12 11.6613 12 11.6613L11.6305 9.78319Z" fill="#9D9D9C"/>
</svg>
