<svg width="37" height="46" viewBox="0 0 37 46" fill="none" xmlns="http://www.w3.org/2000/svg">
<path d="M2.53694 7.19133e-06C1.13573 7.19133e-06 0 1.15432 0 2.57845C0 2.94304 0.0764061 3.2892 0.211088 3.60246C0.442896 4.13947 0.810682 5.24639 0.810682 6.21512V44.2415C0.810682 45.2103 1.58251 46 2.53694 46C3.49008 46 4.26709 45.2103 4.26709 44.2415V6.21512C4.26709 5.24639 4.63358 4.13947 4.8615 3.60246C4.99748 3.2892 5.07259 2.94304 5.07259 2.57845C5.07647 1.15827 3.93815 7.19133e-06 2.53694 7.19133e-06Z" fill="#CCCCCC"/>
<path d="M30.6921 17.9676C30.3425 18.4519 30.3464 19.1035 30.7025 19.5444C32.5997 21.882 34.5526 23.7997 36.3967 25.3291C38.0219 26.6782 35.9033 27.6614 35.428 27.8667C25.7542 32.0667 16.0882 23.2798 6.4209 25.9556V5.21224C16.1038 2.53509 25.7853 11.3602 35.4682 7.10626C35.9409 6.90093 36.3721 6.95095 36.5806 7.27474C36.7878 7.59589 36.736 8.14869 36.4472 8.68965C34.5293 12.2645 32.6101 15.2944 30.6921 17.9676Z" fill="#CCCCCC"/>
</svg>
